<svg xmlns="http://www.w3.org/2000/svg" xmlns:xlink="http://www.w3.org/1999/xlink" width="1000" zoomAndPan="magnify" viewBox="0 0 750 74.999997" height="100" preserveAspectRatio="xMidYMid meet" version="1.0"><defs><g/></defs><rect x="-75" width="900" fill="#ffffff" y="-7.5" height="89.999996" fill-opacity="1"/><rect x="-75" width="900" fill="#ffffff" y="-7.5" height="89.999996" fill-opacity="1"/><rect x="-75" width="900" fill="#ffffff" y="-7.5" height="89.999996" fill-opacity="1"/><g fill="#000000" fill-opacity="1"><g transform="translate(0.000015, 58.740535)"><g><path d="M 39.140625 0 L 31.261719 -22.007812 C 33.136719 -23.007812 34.699219 -24.320312 35.824219 -26.070312 C 36.949219 -27.824219 37.515625 -30.011719 37.515625 -32.761719 C 37.515625 -35.199219 37.011719 -37.265625 36.074219 -38.953125 C 35.074219 -40.578125 33.824219 -41.953125 32.199219 -42.953125 C 30.574219 -43.953125 28.636719 -44.703125 26.445312 -45.140625 C 24.257812 -45.578125 21.945312 -45.828125 19.507812 -45.828125 L 3.125 -45.828125 L 3.125 0 L 16.195312 0 L 16.195312 -19.632812 L 19.507812 -19.632812 L 26.007812 0 Z M 16.195312 -26.195312 L 16.195312 -39.265625 C 17.570312 -39.265625 18.757812 -39.078125 19.820312 -38.703125 C 20.882812 -38.328125 21.757812 -37.828125 22.445312 -37.203125 C 23.132812 -36.574219 23.632812 -35.886719 24.007812 -35.136719 C 24.382812 -34.324219 24.570312 -33.511719 24.570312 -32.699219 C 24.570312 -31.824219 24.382812 -31.011719 24.007812 -30.261719 C 23.632812 -29.511719 23.132812 -28.824219 22.445312 -28.199219 C 21.757812 -27.574219 20.882812 -27.136719 19.820312 -26.761719 C 18.757812 -26.382812 17.570312 -26.195312 16.195312 -26.195312 Z M 16.195312 -26.195312 "/></g></g></g><g fill="#000000" fill-opacity="1"><g transform="translate(41.012747, 58.740535)"><g><path d="M 22.820312 -47.328125 C 19.320312 -47.328125 16.257812 -46.578125 13.628906 -45.203125 C 11.003906 -43.828125 8.878906 -41.953125 7.128906 -39.703125 C 5.378906 -37.390625 4.0625 -34.761719 3.1875 -31.886719 C 2.3125 -28.949219 1.875 -25.945312 1.875 -22.945312 C 1.875 -19.820312 2.3125 -16.820312 3.1875 -13.941406 C 4.0625 -11.003906 5.378906 -8.378906 7.128906 -6.128906 C 8.878906 -3.8125 11.003906 -1.9375 13.628906 -0.5625 C 16.257812 0.8125 19.320312 1.5 22.820312 1.5 C 26.320312 1.5 29.324219 0.8125 31.949219 -0.5625 C 34.574219 -1.9375 36.761719 -3.8125 38.515625 -6.128906 C 40.265625 -8.378906 41.578125 -11.003906 42.453125 -13.941406 C 43.328125 -16.820312 43.765625 -19.820312 43.765625 -22.945312 C 43.765625 -25.945312 43.328125 -28.949219 42.453125 -31.886719 C 41.578125 -34.761719 40.265625 -37.390625 38.515625 -39.703125 C 36.761719 -41.953125 34.574219 -43.828125 31.949219 -45.203125 C 29.324219 -46.578125 26.320312 -47.328125 22.820312 -47.328125 Z M 22.820312 -5.503906 C 21.945312 -5.503906 21.070312 -5.816406 20.257812 -6.503906 C 19.382812 -7.128906 18.632812 -8.191406 18.007812 -9.628906 C 17.320312 -11.003906 16.757812 -12.816406 16.382812 -15.003906 C 16.007812 -17.195312 15.816406 -19.820312 15.816406 -22.945312 C 15.816406 -25.945312 16.007812 -28.574219 16.382812 -30.824219 C 16.757812 -33.011719 17.320312 -34.824219 18.007812 -36.261719 C 18.632812 -37.640625 19.382812 -38.703125 20.257812 -39.390625 C 21.070312 -40.015625 21.945312 -40.390625 22.820312 -40.390625 C 23.695312 -40.390625 24.507812 -40.015625 25.382812 -39.390625 C 26.195312 -38.703125 26.949219 -37.640625 27.636719 -36.261719 C 28.261719 -34.824219 28.824219 -33.011719 29.199219 -30.824219 C 29.574219 -28.574219 29.824219 -25.945312 29.824219 -22.945312 C 29.824219 -19.820312 29.574219 -17.195312 29.199219 -15.003906 C 28.824219 -12.816406 28.261719 -11.003906 27.636719 -9.628906 C 26.949219 -8.191406 26.195312 -7.128906 25.382812 -6.503906 C 24.507812 -5.816406 23.695312 -5.503906 22.820312 -5.503906 Z M 22.820312 -5.503906 "/></g></g></g><g fill="#000000" fill-opacity="1"><g transform="translate(86.651918, 58.740535)"><g><path d="M 24.757812 -6.566406 C 23.132812 -6.566406 21.695312 -7.003906 20.445312 -7.941406 C 19.195312 -8.878906 18.195312 -10.128906 17.382812 -11.691406 C 16.570312 -13.191406 15.945312 -14.941406 15.566406 -16.945312 C 15.128906 -18.882812 14.941406 -20.882812 14.941406 -22.945312 C 14.941406 -24.945312 15.128906 -26.949219 15.566406 -28.886719 C 15.945312 -30.824219 16.570312 -32.574219 17.382812 -34.136719 C 18.195312 -35.636719 19.195312 -36.886719 20.445312 -37.828125 C 21.695312 -38.765625 23.132812 -39.265625 24.757812 -39.265625 C 25.945312 -39.265625 27.074219 -38.953125 28.074219 -38.453125 C 29.074219 -37.953125 29.949219 -37.390625 30.699219 -36.824219 C 31.511719 -36.074219 32.261719 -35.261719 32.949219 -34.386719 L 37.890625 -39.265625 C 36.824219 -40.453125 35.574219 -41.515625 34.199219 -42.515625 C 32.949219 -43.328125 31.449219 -44.078125 29.574219 -44.765625 C 27.699219 -45.453125 25.570312 -45.828125 23.132812 -45.828125 C 19.570312 -45.828125 16.445312 -45.140625 13.816406 -43.828125 C 11.191406 -42.515625 8.941406 -40.765625 7.191406 -38.640625 C 5.441406 -36.449219 4.0625 -34.011719 3.1875 -31.261719 C 2.3125 -28.511719 1.875 -25.695312 1.875 -22.820312 C 1.875 -19.945312 2.3125 -17.132812 3.1875 -14.378906 C 4.0625 -11.628906 5.378906 -9.253906 7.128906 -7.128906 C 8.878906 -5 11.128906 -3.25 13.816406 -1.9375 C 16.445312 -0.625 19.570312 0 23.132812 0 C 25.570312 0 27.699219 -0.3125 29.574219 -1 C 31.449219 -1.625 32.949219 -2.375 34.199219 -3.25 C 35.574219 -4.1875 36.824219 -5.316406 37.890625 -6.566406 L 32.949219 -11.441406 C 32.261719 -10.503906 31.511719 -9.691406 30.699219 -9.003906 C 29.949219 -8.378906 29.074219 -7.816406 28.074219 -7.316406 C 27.074219 -6.816406 25.945312 -6.566406 24.757812 -6.566406 Z M 24.757812 -6.566406 "/></g></g></g><g fill="#000000" fill-opacity="1"><g transform="translate(126.414254, 58.740535)"><g><path d="M 16.257812 -18.195312 L 22.757812 0 L 35.886719 0 L 24.507812 -30.886719 L 34.199219 -45.828125 L 24.382812 -45.828125 L 16.195312 -33.261719 L 16.195312 -45.828125 L 3.125 -45.828125 L 3.125 0 L 16.195312 0 L 16.195312 -18.132812 Z M 16.257812 -18.195312 "/></g></g></g><g fill="#000000" fill-opacity="1"><g transform="translate(165.426364, 58.740535)"><g><path d="M 11.691406 -4.9375 C 11.691406 -6.253906 11.191406 -7.378906 10.253906 -8.378906 C 9.253906 -9.316406 8.128906 -9.816406 6.816406 -9.816406 C 5.441406 -9.816406 4.25 -9.316406 3.3125 -8.378906 C 2.3125 -7.378906 1.875 -6.253906 1.875 -4.9375 C 1.875 -3.5625 2.3125 -2.375 3.3125 -1.4375 C 4.25 -0.4375 5.441406 0 6.816406 0 C 7.066406 0 7.316406 0 7.441406 -0.0625 C 6.941406 0.5625 6.191406 1 5.316406 1.3125 L 6.316406 3.4375 C 7.878906 2.8125 9.191406 1.75 10.191406 0.3125 C 11.191406 -1.0625 11.691406 -2.8125 11.691406 -4.9375 Z M 11.691406 -4.9375 "/></g></g></g><g fill="#000000" fill-opacity="1"><g transform="translate(178.993085, 58.740535)"><g/></g></g><g fill="#000000" fill-opacity="1"><g transform="translate(197.7489, 58.740535)"><g><path d="M 19.507812 -45.828125 L 3.125 -45.828125 L 3.125 0 L 16.195312 0 L 16.195312 -19.632812 L 19.507812 -19.632812 C 21.945312 -19.632812 24.257812 -19.820312 26.445312 -20.257812 C 28.636719 -20.695312 30.574219 -21.445312 32.199219 -22.445312 C 33.824219 -23.445312 35.074219 -24.820312 36.074219 -26.511719 C 37.011719 -28.199219 37.515625 -30.261719 37.515625 -32.761719 C 37.515625 -35.199219 37.011719 -37.265625 36.074219 -38.953125 C 35.074219 -40.578125 33.824219 -41.953125 32.199219 -42.953125 C 30.574219 -43.953125 28.636719 -44.703125 26.445312 -45.140625 C 24.257812 -45.578125 21.945312 -45.828125 19.507812 -45.828125 Z M 16.195312 -26.195312 L 16.195312 -39.265625 C 17.570312 -39.265625 18.757812 -39.078125 19.820312 -38.703125 C 20.882812 -38.328125 21.757812 -37.828125 22.445312 -37.203125 C 23.132812 -36.574219 23.632812 -35.886719 24.007812 -35.136719 C 24.382812 -34.324219 24.570312 -33.511719 24.570312 -32.699219 C 24.570312 -31.824219 24.382812 -31.011719 24.007812 -30.261719 C 23.632812 -29.511719 23.132812 -28.824219 22.445312 -28.199219 C 21.757812 -27.574219 20.882812 -27.136719 19.820312 -26.761719 C 18.757812 -26.382812 17.570312 -26.195312 16.195312 -26.195312 Z M 16.195312 -26.195312 "/></g></g></g><g fill="#000000" fill-opacity="1"><g transform="translate(237.136124, 58.740535)"><g><path d="M 23.695312 -13.066406 L 27.449219 0 L 40.515625 0 L 27.449219 -45.828125 L 14.316406 -45.828125 L 1.25 0 L 11.066406 0 L 14.816406 -13.066406 Z M 21.820312 -19.632812 L 16.695312 -19.632812 L 19.257812 -28.636719 Z M 21.820312 -19.632812 "/></g></g></g><g fill="#000000" fill-opacity="1"><g transform="translate(278.899082, 58.740535)"><g><path d="M 19.507812 -45.828125 L 3.125 -45.828125 L 3.125 0 L 16.195312 0 L 16.195312 -19.632812 L 19.507812 -19.632812 C 21.945312 -19.632812 24.257812 -19.820312 26.445312 -20.257812 C 28.636719 -20.695312 30.574219 -21.445312 32.199219 -22.445312 C 33.824219 -23.445312 35.074219 -24.820312 36.074219 -26.511719 C 37.011719 -28.199219 37.515625 -30.261719 37.515625 -32.761719 C 37.515625 -35.199219 37.011719 -37.265625 36.074219 -38.953125 C 35.074219 -40.578125 33.824219 -41.953125 32.199219 -42.953125 C 30.574219 -43.953125 28.636719 -44.703125 26.445312 -45.140625 C 24.257812 -45.578125 21.945312 -45.828125 19.507812 -45.828125 Z M 16.195312 -26.195312 L 16.195312 -39.265625 C 17.570312 -39.265625 18.757812 -39.078125 19.820312 -38.703125 C 20.882812 -38.328125 21.757812 -37.828125 22.445312 -37.203125 C 23.132812 -36.574219 23.632812 -35.886719 24.007812 -35.136719 C 24.382812 -34.324219 24.570312 -33.511719 24.570312 -32.699219 C 24.570312 -31.824219 24.382812 -31.011719 24.007812 -30.261719 C 23.632812 -29.511719 23.132812 -28.824219 22.445312 -28.199219 C 21.757812 -27.574219 20.882812 -27.136719 19.820312 -26.761719 C 18.757812 -26.382812 17.570312 -26.195312 16.195312 -26.195312 Z M 16.195312 -26.195312 "/></g></g></g><g fill="#000000" fill-opacity="1"><g transform="translate(318.286306, 58.740535)"><g><path d="M 32.574219 -9.816406 L 16.195312 -9.816406 L 16.195312 -18.007812 L 29.324219 -18.007812 L 29.324219 -27.824219 L 16.195312 -27.824219 L 16.195312 -36.011719 L 30.949219 -36.011719 L 29.324219 -45.828125 L 3.125 -45.828125 L 3.125 0 L 30.949219 0 Z M 32.574219 -9.816406 "/></g></g></g><g fill="#000000" fill-opacity="1"><g transform="translate(353.984886, 58.740535)"><g><path d="M 39.140625 0 L 31.261719 -22.007812 C 33.136719 -23.007812 34.699219 -24.320312 35.824219 -26.070312 C 36.949219 -27.824219 37.515625 -30.011719 37.515625 -32.761719 C 37.515625 -35.199219 37.011719 -37.265625 36.074219 -38.953125 C 35.074219 -40.578125 33.824219 -41.953125 32.199219 -42.953125 C 30.574219 -43.953125 28.636719 -44.703125 26.445312 -45.140625 C 24.257812 -45.578125 21.945312 -45.828125 19.507812 -45.828125 L 3.125 -45.828125 L 3.125 0 L 16.195312 0 L 16.195312 -19.632812 L 19.507812 -19.632812 L 26.007812 0 Z M 16.195312 -26.195312 L 16.195312 -39.265625 C 17.570312 -39.265625 18.757812 -39.078125 19.820312 -38.703125 C 20.882812 -38.328125 21.757812 -37.828125 22.445312 -37.203125 C 23.132812 -36.574219 23.632812 -35.886719 24.007812 -35.136719 C 24.382812 -34.324219 24.570312 -33.511719 24.570312 -32.699219 C 24.570312 -31.824219 24.382812 -31.011719 24.007812 -30.261719 C 23.632812 -29.511719 23.132812 -28.824219 22.445312 -28.199219 C 21.757812 -27.574219 20.882812 -27.136719 19.820312 -26.761719 C 18.757812 -26.382812 17.570312 -26.195312 16.195312 -26.195312 Z M 16.195312 -26.195312 "/></g></g></g><g fill="#000000" fill-opacity="1"><g transform="translate(394.997617, 58.740535)"><g><path d="M 11.691406 -4.9375 C 11.691406 -6.253906 11.191406 -7.378906 10.253906 -8.378906 C 9.253906 -9.316406 8.128906 -9.816406 6.816406 -9.816406 C 5.441406 -9.816406 4.25 -9.316406 3.3125 -8.378906 C 2.3125 -7.378906 1.875 -6.253906 1.875 -4.9375 C 1.875 -3.5625 2.3125 -2.375 3.3125 -1.4375 C 4.25 -0.4375 5.441406 0 6.816406 0 C 7.066406 0 7.316406 0 7.441406 -0.0625 C 6.941406 0.5625 6.191406 1 5.316406 1.3125 L 6.316406 3.4375 C 7.878906 2.8125 9.191406 1.75 10.191406 0.3125 C 11.191406 -1.0625 11.691406 -2.8125 11.691406 -4.9375 Z M 11.691406 -4.9375 "/></g></g></g><g fill="#000000" fill-opacity="1"><g transform="translate(408.564338, 58.740535)"><g/></g></g><g fill="#000000" fill-opacity="1"><g transform="translate(427.320153, 58.740535)"><g><path d="M 24.757812 -9.816406 C 24.757812 -8.941406 24.320312 -8.191406 23.507812 -7.566406 C 22.695312 -6.878906 21.507812 -6.566406 19.882812 -6.566406 C 18.507812 -6.566406 17.132812 -6.816406 15.878906 -7.441406 C 14.628906 -8.003906 13.441406 -8.691406 12.378906 -9.566406 C 11.253906 -10.441406 10.316406 -11.378906 9.441406 -12.378906 C 8.566406 -13.378906 7.816406 -14.378906 7.253906 -15.253906 L 1.875 -9.816406 C 3.375 -7.941406 4.875 -6.441406 6.378906 -5.1875 C 7.878906 -3.9375 9.441406 -2.9375 11.066406 -2.1875 C 12.628906 -1.375 14.253906 -0.8125 16.007812 -0.5 C 17.757812 -0.125 19.570312 0 21.507812 0 C 24.382812 0 26.824219 -0.4375 28.886719 -1.3125 C 30.949219 -2.1875 32.636719 -3.3125 34.011719 -4.6875 C 35.324219 -6.003906 36.324219 -7.441406 36.949219 -8.941406 C 37.578125 -10.441406 37.890625 -11.816406 37.890625 -13.066406 C 37.890625 -15.503906 37.328125 -17.632812 36.199219 -19.445312 C 35.074219 -21.257812 33.636719 -22.820312 31.949219 -24.195312 C 30.199219 -25.570312 28.386719 -26.761719 26.382812 -27.824219 C 24.382812 -28.824219 22.570312 -29.824219 20.882812 -30.699219 C 19.132812 -31.574219 17.757812 -32.386719 16.632812 -33.261719 C 15.503906 -34.074219 14.941406 -35.011719 14.941406 -36.011719 C 14.941406 -36.824219 15.316406 -37.578125 16.195312 -38.265625 C 17.007812 -38.890625 18.257812 -39.265625 19.882812 -39.265625 C 21.257812 -39.265625 22.570312 -38.953125 23.820312 -38.390625 C 25.070312 -37.765625 26.257812 -37.078125 27.386719 -36.199219 C 28.449219 -35.324219 29.449219 -34.386719 30.324219 -33.386719 C 31.199219 -32.386719 31.886719 -31.449219 32.511719 -30.574219 L 37.890625 -36.011719 C 34.886719 -39.578125 31.824219 -42.078125 28.699219 -43.578125 C 25.570312 -45.078125 22.070312 -45.828125 18.257812 -45.828125 C 15.378906 -45.828125 12.878906 -45.328125 10.816406 -44.453125 C 8.753906 -43.578125 7.066406 -42.453125 5.753906 -41.140625 C 4.375 -39.765625 3.4375 -38.328125 2.8125 -36.824219 C 2.1875 -35.324219 1.875 -33.949219 1.875 -32.761719 C 1.875 -30.261719 2.4375 -28.136719 3.5625 -26.320312 C 4.6875 -24.507812 6.066406 -22.945312 7.816406 -21.570312 C 9.503906 -20.195312 11.316406 -19.007812 13.316406 -18.007812 C 15.316406 -16.945312 17.132812 -16.007812 18.820312 -15.128906 C 20.507812 -14.253906 21.945312 -13.378906 23.070312 -12.566406 C 24.195312 -11.691406 24.757812 -10.816406 24.757812 -9.816406 Z M 24.757812 -9.816406 "/></g></g></g><g fill="#000000" fill-opacity="1"><g transform="translate(467.082489, 58.740535)"><g><path d="M 24.757812 -6.566406 C 23.132812 -6.566406 21.695312 -7.003906 20.445312 -7.941406 C 19.195312 -8.878906 18.195312 -10.128906 17.382812 -11.691406 C 16.570312 -13.191406 15.945312 -14.941406 15.566406 -16.945312 C 15.128906 -18.882812 14.941406 -20.882812 14.941406 -22.945312 C 14.941406 -24.945312 15.128906 -26.949219 15.566406 -28.886719 C 15.945312 -30.824219 16.570312 -32.574219 17.382812 -34.136719 C 18.195312 -35.636719 19.195312 -36.886719 20.445312 -37.828125 C 21.695312 -38.765625 23.132812 -39.265625 24.757812 -39.265625 C 25.945312 -39.265625 27.074219 -38.953125 28.074219 -38.453125 C 29.074219 -37.953125 29.949219 -37.390625 30.699219 -36.824219 C 31.511719 -36.074219 32.261719 -35.261719 32.949219 -34.386719 L 37.890625 -39.265625 C 36.824219 -40.453125 35.574219 -41.515625 34.199219 -42.515625 C 32.949219 -43.328125 31.449219 -44.078125 29.574219 -44.765625 C 27.699219 -45.453125 25.570312 -45.828125 23.132812 -45.828125 C 19.570312 -45.828125 16.445312 -45.140625 13.816406 -43.828125 C 11.191406 -42.515625 8.941406 -40.765625 7.191406 -38.640625 C 5.441406 -36.449219 4.0625 -34.011719 3.1875 -31.261719 C 2.3125 -28.511719 1.875 -25.695312 1.875 -22.820312 C 1.875 -19.945312 2.3125 -17.132812 3.1875 -14.378906 C 4.0625 -11.628906 5.378906 -9.253906 7.128906 -7.128906 C 8.878906 -5 11.128906 -3.25 13.816406 -1.9375 C 16.445312 -0.625 19.570312 0 23.132812 0 C 25.570312 0 27.699219 -0.3125 29.574219 -1 C 31.449219 -1.625 32.949219 -2.375 34.199219 -3.25 C 35.574219 -4.1875 36.824219 -5.316406 37.890625 -6.566406 L 32.949219 -11.441406 C 32.261719 -10.503906 31.511719 -9.691406 30.699219 -9.003906 C 29.949219 -8.378906 29.074219 -7.816406 28.074219 -7.316406 C 27.074219 -6.816406 25.945312 -6.566406 24.757812 -6.566406 Z M 24.757812 -6.566406 "/></g></g></g><g fill="#000000" fill-opacity="1"><g transform="translate(506.844854, 58.740535)"><g><path d="M 3.125 -45.828125 L 3.125 0 L 16.195312 0 L 16.195312 -45.828125 Z M 3.125 -45.828125 "/></g></g></g><g fill="#000000" fill-opacity="1"><g transform="translate(526.163353, 58.740535)"><g><path d="M 24.757812 -9.816406 C 24.757812 -8.941406 24.320312 -8.191406 23.507812 -7.566406 C 22.695312 -6.878906 21.507812 -6.566406 19.882812 -6.566406 C 18.507812 -6.566406 17.132812 -6.816406 15.878906 -7.441406 C 14.628906 -8.003906 13.441406 -8.691406 12.378906 -9.566406 C 11.253906 -10.441406 10.316406 -11.378906 9.441406 -12.378906 C 8.566406 -13.378906 7.816406 -14.378906 7.253906 -15.253906 L 1.875 -9.816406 C 3.375 -7.941406 4.875 -6.441406 6.378906 -5.1875 C 7.878906 -3.9375 9.441406 -2.9375 11.066406 -2.1875 C 12.628906 -1.375 14.253906 -0.8125 16.007812 -0.5 C 17.757812 -0.125 19.570312 0 21.507812 0 C 24.382812 0 26.824219 -0.4375 28.886719 -1.3125 C 30.949219 -2.1875 32.636719 -3.3125 34.011719 -4.6875 C 35.324219 -6.003906 36.324219 -7.441406 36.949219 -8.941406 C 37.578125 -10.441406 37.890625 -11.816406 37.890625 -13.066406 C 37.890625 -15.503906 37.328125 -17.632812 36.199219 -19.445312 C 35.074219 -21.257812 33.636719 -22.820312 31.949219 -24.195312 C 30.199219 -25.570312 28.386719 -26.761719 26.382812 -27.824219 C 24.382812 -28.824219 22.570312 -29.824219 20.882812 -30.699219 C 19.132812 -31.574219 17.757812 -32.386719 16.632812 -33.261719 C 15.503906 -34.074219 14.941406 -35.011719 14.941406 -36.011719 C 14.941406 -36.824219 15.316406 -37.578125 16.195312 -38.265625 C 17.007812 -38.890625 18.257812 -39.265625 19.882812 -39.265625 C 21.257812 -39.265625 22.570312 -38.953125 23.820312 -38.390625 C 25.070312 -37.765625 26.257812 -37.078125 27.386719 -36.199219 C 28.449219 -35.324219 29.449219 -34.386719 30.324219 -33.386719 C 31.199219 -32.386719 31.886719 -31.449219 32.511719 -30.574219 L 37.890625 -36.011719 C 34.886719 -39.578125 31.824219 -42.078125 28.699219 -43.578125 C 25.570312 -45.078125 22.070312 -45.828125 18.257812 -45.828125 C 15.378906 -45.828125 12.878906 -45.328125 10.816406 -44.453125 C 8.753906 -43.578125 7.066406 -42.453125 5.753906 -41.140625 C 4.375 -39.765625 3.4375 -38.328125 2.8125 -36.824219 C 2.1875 -35.324219 1.875 -33.949219 1.875 -32.761719 C 1.875 -30.261719 2.4375 -28.136719 3.5625 -26.320312 C 4.6875 -24.507812 6.066406 -22.945312 7.816406 -21.570312 C 9.503906 -20.195312 11.316406 -19.007812 13.316406 -18.007812 C 15.316406 -16.945312 17.132812 -16.007812 18.820312 -15.128906 C 20.507812 -14.253906 21.945312 -13.378906 23.070312 -12.566406 C 24.195312 -11.691406 24.757812 -10.816406 24.757812 -9.816406 Z M 24.757812 -9.816406 "/></g></g></g><g fill="#000000" fill-opacity="1"><g transform="translate(565.925661, 58.740535)"><g><path d="M 24.757812 -9.816406 C 24.757812 -8.941406 24.320312 -8.191406 23.507812 -7.566406 C 22.695312 -6.878906 21.507812 -6.566406 19.882812 -6.566406 C 18.507812 -6.566406 17.132812 -6.816406 15.878906 -7.441406 C 14.628906 -8.003906 13.441406 -8.691406 12.378906 -9.566406 C 11.253906 -10.441406 10.316406 -11.378906 9.441406 -12.378906 C 8.566406 -13.378906 7.816406 -14.378906 7.253906 -15.253906 L 1.875 -9.816406 C 3.375 -7.941406 4.875 -6.441406 6.378906 -5.1875 C 7.878906 -3.9375 9.441406 -2.9375 11.066406 -2.1875 C 12.628906 -1.375 14.253906 -0.8125 16.007812 -0.5 C 17.757812 -0.125 19.570312 0 21.507812 0 C 24.382812 0 26.824219 -0.4375 28.886719 -1.3125 C 30.949219 -2.1875 32.636719 -3.3125 34.011719 -4.6875 C 35.324219 -6.003906 36.324219 -7.441406 36.949219 -8.941406 C 37.578125 -10.441406 37.890625 -11.816406 37.890625 -13.066406 C 37.890625 -15.503906 37.328125 -17.632812 36.199219 -19.445312 C 35.074219 -21.257812 33.636719 -22.820312 31.949219 -24.195312 C 30.199219 -25.570312 28.386719 -26.761719 26.382812 -27.824219 C 24.382812 -28.824219 22.570312 -29.824219 20.882812 -30.699219 C 19.132812 -31.574219 17.757812 -32.386719 16.632812 -33.261719 C 15.503906 -34.074219 14.941406 -35.011719 14.941406 -36.011719 C 14.941406 -36.824219 15.316406 -37.578125 16.195312 -38.265625 C 17.007812 -38.890625 18.257812 -39.265625 19.882812 -39.265625 C 21.257812 -39.265625 22.570312 -38.953125 23.820312 -38.390625 C 25.070312 -37.765625 26.257812 -37.078125 27.386719 -36.199219 C 28.449219 -35.324219 29.449219 -34.386719 30.324219 -33.386719 C 31.199219 -32.386719 31.886719 -31.449219 32.511719 -30.574219 L 37.890625 -36.011719 C 34.886719 -39.578125 31.824219 -42.078125 28.699219 -43.578125 C 25.570312 -45.078125 22.070312 -45.828125 18.257812 -45.828125 C 15.378906 -45.828125 12.878906 -45.328125 10.816406 -44.453125 C 8.753906 -43.578125 7.066406 -42.453125 5.753906 -41.140625 C 4.375 -39.765625 3.4375 -38.328125 2.8125 -36.824219 C 2.1875 -35.324219 1.875 -33.949219 1.875 -32.761719 C 1.875 -30.261719 2.4375 -28.136719 3.5625 -26.320312 C 4.6875 -24.507812 6.066406 -22.945312 7.816406 -21.570312 C 9.503906 -20.195312 11.316406 -19.007812 13.316406 -18.007812 C 15.316406 -16.945312 17.132812 -16.007812 18.820312 -15.128906 C 20.507812 -14.253906 21.945312 -13.378906 23.070312 -12.566406 C 24.195312 -11.691406 24.757812 -10.816406 24.757812 -9.816406 Z M 24.757812 -9.816406 "/></g></g></g><g fill="#000000" fill-opacity="1"><g transform="translate(605.688025, 58.740535)"><g><path d="M 22.820312 -47.328125 C 19.320312 -47.328125 16.257812 -46.578125 13.628906 -45.203125 C 11.003906 -43.828125 8.878906 -41.953125 7.128906 -39.703125 C 5.378906 -37.390625 4.0625 -34.761719 3.1875 -31.886719 C 2.3125 -28.949219 1.875 -25.945312 1.875 -22.945312 C 1.875 -19.820312 2.3125 -16.820312 3.1875 -13.941406 C 4.0625 -11.003906 5.378906 -8.378906 7.128906 -6.128906 C 8.878906 -3.8125 11.003906 -1.9375 13.628906 -0.5625 C 16.257812 0.8125 19.320312 1.5 22.820312 1.5 C 26.320312 1.5 29.324219 0.8125 31.949219 -0.5625 C 34.574219 -1.9375 36.761719 -3.8125 38.515625 -6.128906 C 40.265625 -8.378906 41.578125 -11.003906 42.453125 -13.941406 C 43.328125 -16.820312 43.765625 -19.820312 43.765625 -22.945312 C 43.765625 -25.945312 43.328125 -28.949219 42.453125 -31.886719 C 41.578125 -34.761719 40.265625 -37.390625 38.515625 -39.703125 C 36.761719 -41.953125 34.574219 -43.828125 31.949219 -45.203125 C 29.324219 -46.578125 26.320312 -47.328125 22.820312 -47.328125 Z M 22.820312 -5.503906 C 21.945312 -5.503906 21.070312 -5.816406 20.257812 -6.503906 C 19.382812 -7.128906 18.632812 -8.191406 18.007812 -9.628906 C 17.320312 -11.003906 16.757812 -12.816406 16.382812 -15.003906 C 16.007812 -17.195312 15.816406 -19.820312 15.816406 -22.945312 C 15.816406 -25.945312 16.007812 -28.574219 16.382812 -30.824219 C 16.757812 -33.011719 17.320312 -34.824219 18.007812 -36.261719 C 18.632812 -37.640625 19.382812 -38.703125 20.257812 -39.390625 C 21.070312 -40.015625 21.945312 -40.390625 22.820312 -40.390625 C 23.695312 -40.390625 24.507812 -40.015625 25.382812 -39.390625 C 26.195312 -38.703125 26.949219 -37.640625 27.636719 -36.261719 C 28.261719 -34.824219 28.824219 -33.011719 29.199219 -30.824219 C 29.574219 -28.574219 29.824219 -25.945312 29.824219 -22.945312 C 29.824219 -19.820312 29.574219 -17.195312 29.199219 -15.003906 C 28.824219 -12.816406 28.261719 -11.003906 27.636719 -9.628906 C 26.949219 -8.191406 26.195312 -7.128906 25.382812 -6.503906 C 24.507812 -5.816406 23.695312 -5.503906 22.820312 -5.503906 Z M 22.820312 -5.503906 "/></g></g></g><g fill="#000000" fill-opacity="1"><g transform="translate(651.327168, 58.740535)"><g><path d="M 39.140625 0 L 31.261719 -22.007812 C 33.136719 -23.007812 34.699219 -24.320312 35.824219 -26.070312 C 36.949219 -27.824219 37.515625 -30.011719 37.515625 -32.761719 C 37.515625 -35.199219 37.011719 -37.265625 36.074219 -38.953125 C 35.074219 -40.578125 33.824219 -41.953125 32.199219 -42.953125 C 30.574219 -43.953125 28.636719 -44.703125 26.445312 -45.140625 C 24.257812 -45.578125 21.945312 -45.828125 19.507812 -45.828125 L 3.125 -45.828125 L 3.125 0 L 16.195312 0 L 16.195312 -19.632812 L 19.507812 -19.632812 L 26.007812 0 Z M 16.195312 -26.195312 L 16.195312 -39.265625 C 17.570312 -39.265625 18.757812 -39.078125 19.820312 -38.703125 C 20.882812 -38.328125 21.757812 -37.828125 22.445312 -37.203125 C 23.132812 -36.574219 23.632812 -35.886719 24.007812 -35.136719 C 24.382812 -34.324219 24.570312 -33.511719 24.570312 -32.699219 C 24.570312 -31.824219 24.382812 -31.011719 24.007812 -30.261719 C 23.632812 -29.511719 23.132812 -28.824219 22.445312 -28.199219 C 21.757812 -27.574219 20.882812 -27.136719 19.820312 -26.761719 C 18.757812 -26.382812 17.570312 -26.195312 16.195312 -26.195312 Z M 16.195312 -26.195312 "/></g></g></g><g fill="#000000" fill-opacity="1"><g transform="translate(692.339928, 58.740535)"><g><path d="M 24.757812 -9.816406 C 24.757812 -8.941406 24.320312 -8.191406 23.507812 -7.566406 C 22.695312 -6.878906 21.507812 -6.566406 19.882812 -6.566406 C 18.507812 -6.566406 17.132812 -6.816406 15.878906 -7.441406 C 14.628906 -8.003906 13.441406 -8.691406 12.378906 -9.566406 C 11.253906 -10.441406 10.316406 -11.378906 9.441406 -12.378906 C 8.566406 -13.378906 7.816406 -14.378906 7.253906 -15.253906 L 1.875 -9.816406 C 3.375 -7.941406 4.875 -6.441406 6.378906 -5.1875 C 7.878906 -3.9375 9.441406 -2.9375 11.066406 -2.1875 C 12.628906 -1.375 14.253906 -0.8125 16.007812 -0.5 C 17.757812 -0.125 19.570312 0 21.507812 0 C 24.382812 0 26.824219 -0.4375 28.886719 -1.3125 C 30.949219 -2.1875 32.636719 -3.3125 34.011719 -4.6875 C 35.324219 -6.003906 36.324219 -7.441406 36.949219 -8.941406 C 37.578125 -10.441406 37.890625 -11.816406 37.890625 -13.066406 C 37.890625 -15.503906 37.328125 -17.632812 36.199219 -19.445312 C 35.074219 -21.257812 33.636719 -22.820312 31.949219 -24.195312 C 30.199219 -25.570312 28.386719 -26.761719 26.382812 -27.824219 C 24.382812 -28.824219 22.570312 -29.824219 20.882812 -30.699219 C 19.132812 -31.574219 17.757812 -32.386719 16.632812 -33.261719 C 15.503906 -34.074219 14.941406 -35.011719 14.941406 -36.011719 C 14.941406 -36.824219 15.316406 -37.578125 16.195312 -38.265625 C 17.007812 -38.890625 18.257812 -39.265625 19.882812 -39.265625 C 21.257812 -39.265625 22.570312 -38.953125 23.820312 -38.390625 C 25.070312 -37.765625 26.257812 -37.078125 27.386719 -36.199219 C 28.449219 -35.324219 29.449219 -34.386719 30.324219 -33.386719 C 31.199219 -32.386719 31.886719 -31.449219 32.511719 -30.574219 L 37.890625 -36.011719 C 34.886719 -39.578125 31.824219 -42.078125 28.699219 -43.578125 C 25.570312 -45.078125 22.070312 -45.828125 18.257812 -45.828125 C 15.378906 -45.828125 12.878906 -45.328125 10.816406 -44.453125 C 8.753906 -43.578125 7.066406 -42.453125 5.753906 -41.140625 C 4.375 -39.765625 3.4375 -38.328125 2.8125 -36.824219 C 2.1875 -35.324219 1.875 -33.949219 1.875 -32.761719 C 1.875 -30.261719 2.4375 -28.136719 3.5625 -26.320312 C 4.6875 -24.507812 6.066406 -22.945312 7.816406 -21.570312 C 9.503906 -20.195312 11.316406 -19.007812 13.316406 -18.007812 C 15.316406 -16.945312 17.132812 -16.007812 18.820312 -15.128906 C 20.507812 -14.253906 21.945312 -13.378906 23.070312 -12.566406 C 24.195312 -11.691406 24.757812 -10.816406 24.757812 -9.816406 Z M 24.757812 -9.816406 "/></g></g></g><g fill="#000000" fill-opacity="1"><g transform="translate(732.102292, 58.740535)"><g><path d="M 3.125 -45.828125 L 5.691406 -13.753906 L 12.253906 -13.753906 L 14.816406 -45.828125 Z M 13.878906 -4.9375 C 13.878906 -6.253906 13.378906 -7.378906 12.441406 -8.378906 C 11.441406 -9.316406 10.316406 -9.816406 9.003906 -9.816406 C 7.628906 -9.816406 6.441406 -9.316406 5.503906 -8.378906 C 4.5 -7.378906 4.0625 -6.253906 4.0625 -4.9375 C 4.0625 -3.5625 4.5 -2.375 5.503906 -1.4375 C 6.441406 -0.4375 7.628906 0 9.003906 0 C 10.316406 0 11.441406 -0.4375 12.441406 -1.4375 C 13.378906 -2.375 13.878906 -3.5625 13.878906 -4.9375 Z M 13.878906 -4.9375 "/></g></g></g></svg>